<svg width="64" height="64" viewBox="0 0 64 64" fill="none" xmlns="http://www.w3.org/2000/svg">
<g clip-path="url(#clip0_3_24)">
<path d="M0 0H64V64H0V0Z" fill="#1565C0"/>
<path d="M31.8222 7.11111L33.1378 11.1644H37.4044L33.9556 13.6533L35.2711 17.7067L31.8222 15.2178L28.4089 17.7067L29.6889 13.6889L26.2756 11.2H30.5422L31.7867 7.11111H31.8222ZM14.3644 14.3644L18.1689 16.2844L21.1556 13.2978L20.5156 17.4933L24.2844 19.4133L20.0889 20.0889L19.4133 24.2844L17.4933 20.5156L13.2978 21.1556L16.2844 18.1689L14.3644 14.3644ZM7.11111 31.8222L11.1644 30.5067V26.24L13.6533 29.6889L17.7422 28.4444L15.2533 31.8578L17.7422 35.3067L13.7244 33.9911L11.2356 37.44V33.1733L7.11111 31.8222ZM14.3644 49.28L16.2844 45.5111L13.2978 42.4889L17.4933 43.1644L19.4133 39.36L20.0889 43.5911L24.2844 44.2311L20.5156 46.1867L21.1556 50.3822L18.1689 47.36L14.3644 49.28ZM31.8222 56.5333L30.5067 52.48H26.24L29.6889 49.9911L28.4444 45.9378L31.8578 48.4267L35.3067 45.9378L33.9911 49.9911L37.44 52.48H33.1733L31.8578 56.5333H31.8222ZM49.28 49.28L45.5111 47.36L42.4889 50.3822L43.1644 46.1867L39.36 44.2311L43.5911 43.5911L44.2311 39.36L46.1867 43.1644L50.3822 42.4889L47.36 45.5111L49.28 49.28ZM56.5333 31.8222L52.48 33.1378V37.4044L49.9911 33.9556L45.9378 35.2711L48.4267 31.8222L45.9378 28.4089L49.9911 29.6889L52.48 26.2756V30.5422L56.5333 31.8222ZM49.28 14.3644L47.36 18.1689L50.3822 21.1556L46.1867 20.5156L44.2311 24.2844L43.5911 20.0889L39.36 19.4133L43.1644 17.4933L42.4889 13.2978L45.5111 16.2844L49.28 14.3644Z" fill="#FDD835"/>
</g>
<defs>
<clipPath id="clip0_3_24">
<rect width="64" height="64" rx="32" fill="white"/>
</clipPath>
</defs>
</svg>
