<svg width="64" height="64" viewBox="0 0 64 64" fill="none" xmlns="http://www.w3.org/2000/svg">
<g clip-path="url(#clip0_17_62)">
<g clip-path="url(#clip1_17_62)">
<path d="M54.1333 12.0267C49.9242 10.124 45.4878 8.7707 40.9333 8C40.3076 9.10593 39.7432 10.2454 39.2426 11.4133C34.3895 10.6892 29.4558 10.6892 24.6026 11.4133C24.0995 10.2507 23.536 9.11289 22.912 8C18.352 8.77067 13.8986 10.1253 9.68531 12.0267C1.33864 24.2667 -0.928025 36.1867 0.191975 48.0267C5.09864 51.6 10.5653 54.32 16.3786 56.08C17.6942 54.3361 18.8543 52.4801 19.8453 50.5333C17.952 49.8347 16.112 48.9707 14.3786 47.952C14.8373 47.6213 15.2835 47.2889 15.7173 46.9547C20.7885 49.31 26.3125 50.5302 31.904 50.5302C37.4954 50.5302 43.0195 49.31 48.0906 46.9547C48.5298 47.312 48.976 47.6444 49.4293 47.952C47.6859 48.9718 45.8567 49.8373 43.9626 50.5387C44.9573 52.4747 46.1173 54.3253 47.4293 56.0587C53.2693 54.32 58.736 51.6053 63.6426 48.032C64.9706 34.4053 61.3733 22.5653 54.1226 12.032L54.1333 12.0267ZM21.3333 40.8267C18.1866 40.8267 15.5733 38 15.5733 34.5067C15.5733 31.0133 18.0906 28.16 21.3333 28.16C24.56 28.16 27.1466 31.0133 27.0933 34.5067C27.04 38 24.552 40.8267 21.3333 40.8267ZM42.5866 40.8267C39.4133 40.8267 36.8266 38 36.8266 34.5067C36.8266 31.0133 39.344 28.16 42.5866 28.16C45.84 28.16 48.4 31.0133 48.3466 34.5067C48.2933 38 45.8106 40.8267 42.5866 40.8267Z" fill="#FF8A00"/>
</g>
</g>
<defs>
<clipPath id="clip0_17_62">
<rect width="64" height="64" fill="white"/>
</clipPath>
<clipPath id="clip1_17_62">
<rect width="64" height="64" fill="white"/>
</clipPath>
</defs>
</svg>
