<svg width="64" height="64" viewBox="0 0 64 64" fill="none" xmlns="http://www.w3.org/2000/svg">
<g clip-path="url(#clip0_17_69)">
<path d="M55.2266 9.74527C55.2266 9.74527 60.4066 7.72527 59.9732 12.6306C59.8306 14.6506 58.5359 21.7213 57.5279 29.3679L54.0746 52.0213C54.0746 52.0213 53.7866 55.3399 51.1959 55.9173C48.6066 56.4933 44.7212 53.8973 44.0012 53.3199C43.4252 52.8866 33.2092 46.3933 29.6119 43.2199C28.6039 42.3533 27.4519 40.6226 29.7559 38.6026L44.8652 24.1733C46.5919 22.4399 48.3186 18.3999 41.1239 23.3066L20.9772 37.0133C20.9772 37.0133 18.6746 38.4573 14.3586 37.1586L5.0039 34.2719C5.0039 34.2719 1.55057 32.1079 7.45057 29.9439C21.8412 23.1626 39.5412 16.2373 55.2252 9.74394" fill="#FF8A00"/>
</g>
<defs>
<clipPath id="clip0_17_69">
<rect width="64" height="64" fill="white"/>
</clipPath>
</defs>
</svg>
