<svg width="64" height="64" viewBox="0 0 64 64" fill="none" xmlns="http://www.w3.org/2000/svg">
<g clip-path="url(#clip0_17_65)">
<path d="M32 1C14.8791 1 1 14.8791 1 32C1 49.1209 14.8791 63 32 63C49.1209 63 63 49.1209 63 32C63 14.8791 49.1209 1 32 1ZM53.712 15.9449L45.7871 23.8697C44.4137 21.5499 42.4534 19.5883 40.1302 18.2129L48.0551 10.288C50.2083 11.8856 52.1144 13.7917 53.712 15.9449ZM32 44C25.3726 44 20 38.6274 20 32C20 25.3726 25.3726 20 32 20C38.6274 20 44 25.3726 44 32C44 38.6274 38.6274 44 32 44ZM15.9449 10.288L23.8697 18.2129C21.5499 19.5863 19.5883 21.5466 18.2129 23.8697L10.288 15.9449C11.8856 13.7917 13.7917 11.8856 15.9449 10.288ZM10.288 48.0551L18.2129 40.1302C19.5863 42.4501 21.5466 44.4117 23.8697 45.7871L15.9449 53.712C13.7917 52.1144 11.8856 50.2083 10.288 48.0551ZM48.0551 53.712L40.1302 45.7871C42.4501 44.4137 44.4117 42.4534 45.7871 40.1302L53.712 48.0551C52.1144 50.2083 50.2083 52.1144 48.0551 53.712Z" fill="#FF8A00"/>
</g>
<defs>
<clipPath id="clip0_17_65">
<rect width="64" height="64" fill="white"/>
</clipPath>
</defs>
</svg>
