<svg width="64" height="64" viewBox="0 0 64 64" fill="none" xmlns="http://www.w3.org/2000/svg">
<g clip-path="url(#clip0_3_36)">
<path d="M0 0H64V64H0V0Z" fill="white"/>
<path d="M24.8889 0H3.55556L24.8889 19.5556V0ZM39.1111 0V21.3333L62.2222 0H39.1111ZM64 16L53.3333 24.8889H64V16ZM64 39.1111H49.7778L64 51.5556V39.1111ZM60.4444 64L39.1111 44.4444V64H60.4444ZM24.8889 64V42.6667L1.77778 64H24.8889ZM0 48L10.6667 39.1111H0V48ZM0 24.8889H14.2222L0 12.4444V24.8889Z" fill="#0D47A1"/>
<path d="M24.8889 24.8889L-23.1111 -17.7778V-9.59999L17.7778 24.8889H24.8889ZM28.4444 28.4445V6.91414e-06H35.5556V28.4445H64V35.5556H35.5556V64H28.4444V35.5556H2.38419e-07V28.4445H28.4444ZM-32 81.7778L17.7778 39.1111H24.8889L-23.1111 81.7778H-32ZM39.1111 24.8889L81.7778 -14.2222H89.6L46.2222 24.8889H39.1111ZM46.2222 39.1111H39.1111L80 74.6667V67.5556L46.2222 39.1111Z" fill="#EF5350"/>
</g>
<defs>
<clipPath id="clip0_3_36">
<rect width="64" height="64" rx="32" fill="white"/>
</clipPath>
</defs>
</svg>
