<svg width="64" height="64" viewBox="0 0 64 64" fill="none" xmlns="http://www.w3.org/2000/svg">
<g clip-path="url(#clip0_3_33)">
<path d="M0 0H64V64H0V0Z" fill="#2F68AE"/>
<path d="M24.8889 42.6667H28.4444L28.48 39.1111H32V35.5556H28.4444V21.3333H22.4L14.2222 35.3067V39.1111H24.8889V42.6667ZM17.9556 35.5556L24.8889 24.1067V35.5556H17.9556ZM41.4222 42.5956C46.6133 42.5956 49.7778 38.5067 49.7778 31.9645C49.7778 25.3511 46.6133 21.3333 41.4578 21.3333C36.2667 21.3333 33.0667 25.3867 33.0667 31.9289V32C33.0667 38.5422 36.2311 42.6311 41.4222 42.6311V42.5956ZM41.4222 39.1467C38.8978 39.1467 37.44 36.48 37.44 31.9645C37.44 27.4133 38.8622 24.7822 41.4578 24.7822C43.9822 24.7822 45.44 27.4133 45.44 31.9289V32C45.44 36.5156 44.0178 39.1822 41.4578 39.1822L41.4222 39.1467Z" fill="white"/>
</g>
<defs>
<clipPath id="clip0_3_33">
<rect width="64" height="64" rx="32" fill="white"/>
</clipPath>
</defs>
</svg>
