<svg width="64" height="64" viewBox="0 0 64 64" fill="none" xmlns="http://www.w3.org/2000/svg">
<g clip-path="url(#clip0_3_2)">
<rect width="64" height="64" rx="32" fill="white"/>
<g clip-path="url(#clip1_3_2)">
<path d="M0 0H64V64H0V0Z" fill="#D69A00"/>
<path d="M14.7769 32C14.6271 31.9961 14.4786 32.0287 14.3442 32.095C14.2098 32.1613 14.0935 32.2592 14.0053 32.3804L7.87555 41.5289C7.53422 42.0373 7.96089 42.6667 8.64711 42.6667H30.4604C31.1467 42.6667 31.5733 42.0373 31.232 41.5289L25.1022 32.3804C25.0141 32.2592 24.8978 32.1613 24.7634 32.095C24.629 32.0287 24.4805 31.9961 24.3307 32H14.7769ZM39.6658 32C39.516 31.9961 39.3675 32.0287 39.233 32.095C39.0986 32.1613 38.9824 32.2592 38.8942 32.3804L32.7644 41.5289C32.4231 42.0373 32.8498 42.6667 33.536 42.6667H55.3529C56.0356 42.6667 56.4622 42.0373 56.1209 41.5289L49.9911 32.3804C49.903 32.2592 49.7867 32.1613 49.6523 32.095C49.5179 32.0287 49.3694 31.9961 49.2196 32H39.6658ZM27.2213 17.7778C27.0715 17.7739 26.923 17.8065 26.7886 17.8728C26.6542 17.9391 26.5379 18.037 26.4498 18.1582L20.32 27.3067C19.9787 27.8151 20.4053 28.4444 21.0916 28.4444H42.9084C43.5911 28.4444 44.0178 27.8151 43.6764 27.3067L37.5467 18.1582C37.4585 18.037 37.3422 17.9391 37.2078 17.8728C37.0734 17.8065 36.9249 17.7739 36.7751 17.7778H27.2213Z" fill="white"/>
</g>
</g>
<defs>
<clipPath id="clip0_3_2">
<rect width="64" height="64" rx="32" fill="white"/>
</clipPath>
<clipPath id="clip1_3_2">
<rect width="64" height="64" fill="white"/>
</clipPath>
</defs>
</svg>
