<svg width="64" height="64" viewBox="0 0 64 64" fill="none" xmlns="http://www.w3.org/2000/svg">
<g clip-path="url(#clip0_3_15)">
<path d="M0 32C0 49.6731 14.3269 64 32 64C49.6731 64 64 49.6731 64 32C64 14.3269 49.6731 0 32 0C14.3269 0 0 14.3269 0 32Z" fill="#F0F3FA"/>
<path d="M32 17.7778C35.772 17.7778 39.3895 19.2762 42.0566 21.9434C44.7238 24.6106 46.2222 28.228 46.2222 32C46.2222 35.772 44.7238 39.3895 42.0566 42.0566C39.3895 44.7238 35.772 46.2222 32 46.2222C28.228 46.2222 24.6106 44.7238 21.9434 42.0566C19.2762 39.3895 17.7778 35.772 17.7778 32C17.7778 28.228 19.2762 24.6106 21.9434 21.9434C24.6106 19.2762 28.228 17.7778 32 17.7778Z" fill="#F7525F"/>
<path fill-rule="evenodd" clip-rule="evenodd" d="M32 62.2222C35.9688 62.2222 39.8988 61.4405 43.5655 59.9217C47.2323 58.4029 50.5639 56.1767 53.3703 53.3703C56.1767 50.5639 58.4029 47.2323 59.9217 43.5655C61.4405 39.8988 62.2222 35.9688 62.2222 32C62.2222 28.0312 61.4405 24.1012 59.9217 20.4345C58.4029 16.7677 56.1767 13.4361 53.3703 10.6297C50.5639 7.82327 47.2323 5.59712 43.5655 4.07831C39.8988 2.5595 35.9688 1.77778 32 1.77778C23.9846 1.77778 16.2974 4.9619 10.6297 10.6297C4.9619 16.2974 1.77778 23.9846 1.77778 32C1.77778 40.0154 4.9619 47.7026 10.6297 53.3703C16.2974 59.0381 23.9846 62.2222 32 62.2222ZM32 64C40.4869 64 48.6263 60.6286 54.6274 54.6274C60.6286 48.6263 64 40.4869 64 32C64 23.5131 60.6286 15.3737 54.6274 9.37258C48.6263 3.37142 40.4869 0 32 0C23.5131 0 15.3737 3.37142 9.37258 9.37258C3.37142 15.3737 0 23.5131 0 32C0 40.4869 3.37142 48.6263 9.37258 54.6274C15.3737 60.6286 23.5131 64 32 64Z" fill="#E0E3EB"/>
</g>
<defs>
<clipPath id="clip0_3_15">
<rect width="64" height="64" fill="white"/>
</clipPath>
</defs>
</svg>
