<svg width="64" height="64" viewBox="0 0 64 64" fill="none" xmlns="http://www.w3.org/2000/svg">
<g clip-path="url(#clip0_3_30)">
<path d="M0 0H64V64H0V0Z" fill="#0091BA"/>
<path d="M12.4302 42.3111H16.6862V21.6889H12.4196L7.11111 25.3902V29.2196L12.3449 25.6498H12.4302V42.3111ZM29.4044 42.6667C34.6098 42.6667 37.7707 38.5671 37.7707 32.0071V31.9787C37.7707 25.4187 34.6098 21.3333 29.4044 21.3333C24.1956 21.3333 21.0382 25.4222 21.0382 31.9787V32.0071C21.0382 38.5671 24.1956 42.6667 29.4044 42.6667ZM29.4044 39.2071C26.8444 39.2071 25.376 36.5369 25.376 32.0071V31.9787C25.376 27.4489 26.8444 24.7929 29.4044 24.7929C31.9644 24.7929 33.4293 27.4489 33.4293 31.9787V32.0071C33.4293 36.5369 31.9644 39.2071 29.4044 39.2071ZM48.5227 42.6667C53.7316 42.6667 56.8889 38.5671 56.8889 32.0071V31.9787C56.8889 25.4187 53.7316 21.3333 48.5227 21.3333C43.3173 21.3333 40.16 25.4222 40.16 31.9787V32.0071C40.16 38.5671 43.3173 42.6667 48.5227 42.6667ZM48.5227 39.2071C45.9627 39.2071 44.4978 36.5369 44.4978 32.0071V31.9787C44.4978 27.4489 45.9627 24.7929 48.5227 24.7929C51.0827 24.7929 52.5511 27.4489 52.5511 31.9787V32.0071C52.5511 36.5369 51.0862 39.2071 48.5227 39.2071Z" fill="white"/>
</g>
<defs>
<clipPath id="clip0_3_30">
<rect width="64" height="64" rx="32" fill="white"/>
</clipPath>
</defs>
</svg>
