<svg width="64" height="64" viewBox="0 0 64 64" fill="none" xmlns="http://www.w3.org/2000/svg">
<g clip-path="url(#clip0_3_27)">
<path d="M0 0H64V64H0V0Z" fill="#C4162E"/>
<path d="M14.7449 42.6667C19.3956 42.6667 22.6204 39.7369 22.6204 35.4204V35.392C22.6204 31.5058 19.8187 28.6933 15.936 28.6933C13.8773 28.6933 12.1956 29.536 11.3422 30.9227H11.2569L11.7618 25.12H21.3867V21.6889H8.39822L7.45956 33.792H11.1324C11.3813 33.3653 11.7191 32.9635 12.1138 32.6507C12.8142 32.0924 13.7102 31.7795 14.7733 31.7795C16.9884 31.7795 18.5707 33.3084 18.5849 35.4773V35.5093C18.5849 37.7067 17.0027 39.2533 14.7591 39.2533C12.7858 39.2533 11.3422 38.0516 11.0329 36.4942L11.0187 36.3947H7.11111L7.12533 36.608C7.36 40.0533 10.304 42.6667 14.7449 42.6667ZM31.5947 42.6667C36.6649 42.6667 39.7476 38.5671 39.7476 32.0071V31.9787C39.7476 25.4187 36.6649 21.3333 31.5947 21.3333C26.5102 21.3333 23.4276 25.4222 23.4276 31.9787V32.0071C23.4276 38.5671 26.5067 42.6667 31.5947 42.6667ZM31.5947 39.2071C29.1129 39.2071 27.712 36.5369 27.712 32.0071V31.9787C27.712 27.4489 29.1129 24.7929 31.5947 24.7929C34.0587 24.7929 35.4738 27.4489 35.4738 31.9787V32.0071C35.4738 36.5369 34.0587 39.2071 31.5947 39.2071ZM48.736 42.6667C53.8062 42.6667 56.8889 38.5671 56.8889 32.0071V31.9787C56.8889 25.4187 53.8062 21.3333 48.736 21.3333C43.6516 21.3333 40.5689 25.4222 40.5689 31.9787V32.0071C40.5689 38.5671 43.6516 42.6667 48.736 42.6667ZM48.736 39.2071C46.2542 39.2071 44.8533 36.5369 44.8533 32.0071V31.9787C44.8533 27.4489 46.2542 24.7929 48.736 24.7929C51.2 24.7929 52.6151 27.4489 52.6151 31.9787V32.0071C52.6151 36.5369 51.2 39.2071 48.736 39.2071Z" fill="white"/>
</g>
<defs>
<clipPath id="clip0_3_27">
<rect width="64" height="64" rx="32" fill="white"/>
</clipPath>
</defs>
</svg>
