<svg width="64" height="64" viewBox="0 0 64 64" fill="none" xmlns="http://www.w3.org/2000/svg">
<g clip-path="url(#clip0_3_19)">
<path d="M0 0H39.1111V39.1111H0V0Z" fill="#1E88E9"/>
<path d="M39.1111 0V14.2222H64V0H39.1111ZM39.1111 24.8889V39.1111H64V24.8889H39.1111ZM0 49.7778V64H64V49.7778H0Z" fill="#EF5350"/>
<path d="M39.1111 14.2222V24.8889H64V14.2222H39.1111ZM0 39.1111V49.7778H64V39.1111H0Z" fill="#F8F9FD"/>
<path d="M8.60445 4.33778C8.63137 4.28554 8.67215 4.24173 8.72232 4.21114C8.7725 4.18056 8.83013 4.16438 8.88889 4.16438C8.94765 4.16438 9.00528 4.18056 9.05546 4.21114C9.10563 4.24173 9.14641 4.28554 9.17333 4.33778L10.1333 6.86222C10.1689 7.00444 10.3111 7.07555 10.4178 7.07555L13.12 7.21778C13.4044 7.21778 13.5111 7.57333 13.2978 7.78667L11.1644 9.45778C11.118 9.50289 11.0864 9.56103 11.0737 9.62451C11.061 9.68799 11.0678 9.75383 11.0933 9.81333L11.8044 12.3733C11.8261 12.4383 11.8264 12.5084 11.8052 12.5735C11.784 12.6386 11.7426 12.6952 11.6869 12.735C11.6312 12.7747 11.5642 12.7956 11.4958 12.7945C11.4273 12.7934 11.3611 12.7704 11.3067 12.7289L9.06667 11.2711C9.01405 11.2359 8.95218 11.2172 8.88889 11.2172C8.8256 11.2172 8.76374 11.2359 8.71111 11.2711L6.47111 12.7289C6.41672 12.7704 6.35044 12.7934 6.28201 12.7945C6.21358 12.7956 6.1466 12.7747 6.09091 12.735C6.03521 12.6952 5.99374 12.6386 5.97258 12.5735C5.95142 12.5084 5.95168 12.4383 5.97333 12.3733L6.68445 9.77778C6.70583 9.71478 6.70706 9.64668 6.68794 9.58295C6.66882 9.51923 6.63031 9.46304 6.57778 9.42222L4.48 7.78667C4.42978 7.7464 4.39287 7.69193 4.37408 7.63036C4.3553 7.56879 4.35553 7.50298 4.37473 7.44154C4.39393 7.3801 4.43121 7.32588 4.48171 7.28596C4.5322 7.24604 4.59357 7.22228 4.65778 7.21778L7.36 7.07555C7.46667 7.07555 7.60889 7.00444 7.64445 6.86222L8.60445 4.37333V4.33778ZM8.60445 15.0044C8.63137 14.9522 8.67215 14.9084 8.72232 14.8778C8.7725 14.8472 8.83013 14.831 8.88889 14.831C8.94765 14.831 9.00528 14.8472 9.05546 14.8778C9.10563 14.9084 9.14641 14.9522 9.17333 15.0044L10.1333 17.5289C10.1689 17.6711 10.3111 17.7422 10.4178 17.7422L13.12 17.8844C13.4044 17.8844 13.5111 18.24 13.2978 18.4533L11.1644 20.1244C11.118 20.1696 11.0864 20.2277 11.0737 20.2912C11.061 20.3547 11.0678 20.4205 11.0933 20.48L11.8044 23.04C11.8261 23.1049 11.8264 23.1751 11.8052 23.2402C11.784 23.3053 11.7426 23.3618 11.6869 23.4016C11.6312 23.4414 11.5642 23.4623 11.4958 23.4612C11.4273 23.4601 11.3611 23.4371 11.3067 23.3956L9.06667 21.9378C9.01405 21.9026 8.95218 21.8839 8.88889 21.8839C8.8256 21.8839 8.76374 21.9026 8.71111 21.9378L6.47111 23.3956C6.41672 23.4371 6.35044 23.4601 6.28201 23.4612C6.21358 23.4623 6.1466 23.4414 6.09091 23.4016C6.03521 23.3618 5.99374 23.3053 5.97258 23.2402C5.95142 23.1751 5.95168 23.1049 5.97333 23.04L6.68445 20.4444C6.70583 20.3814 6.70706 20.3133 6.68794 20.2496C6.66882 20.1859 6.63031 20.1297 6.57778 20.0889L4.48 18.4533C4.42978 18.4131 4.39287 18.3586 4.37408 18.297C4.3553 18.2355 4.35553 18.1697 4.37473 18.1082C4.39393 18.0468 4.43121 17.9925 4.48171 17.9526C4.5322 17.9127 4.59357 17.8889 4.65778 17.8844L7.36 17.7422C7.46667 17.7422 7.60889 17.6711 7.64445 17.5289L8.60445 15.04V15.0044ZM8.60445 25.6711C8.63137 25.6189 8.67215 25.5751 8.72232 25.5445C8.7725 25.5139 8.83013 25.4977 8.88889 25.4977C8.94765 25.4977 9.00528 25.5139 9.05546 25.5445C9.10563 25.5751 9.14641 25.6189 9.17333 25.6711L10.1333 28.1956C10.1689 28.3378 10.3111 28.4089 10.4178 28.4089L13.12 28.5511C13.4044 28.5511 13.5111 28.9067 13.2978 29.12L11.1644 30.7911C11.118 30.8362 11.0864 30.8944 11.0737 30.9578C11.061 31.0213 11.0678 31.0872 11.0933 31.1467L11.8044 33.7067C11.8261 33.7716 11.8264 33.8417 11.8052 33.9068C11.784 33.9719 11.7426 34.0285 11.6869 34.0683C11.6312 34.1081 11.5642 34.1289 11.4958 34.1279C11.4273 34.1268 11.3611 34.1038 11.3067 34.0622L9.06667 32.6044C9.01405 32.5693 8.95218 32.5505 8.88889 32.5505C8.8256 32.5505 8.76374 32.5693 8.71111 32.6044L6.47111 34.0622C6.41672 34.1038 6.35044 34.1268 6.28201 34.1279C6.21358 34.1289 6.1466 34.1081 6.09091 34.0683C6.03521 34.0285 5.99374 33.9719 5.97258 33.9068C5.95142 33.8417 5.95168 33.7716 5.97333 33.7067L6.68445 31.1111C6.70583 31.0481 6.70706 30.98 6.68794 30.9163C6.66882 30.8526 6.63031 30.7964 6.57778 30.7556L4.48 29.12C4.42978 29.0797 4.39287 29.0253 4.37408 28.9637C4.3553 28.9021 4.35553 28.8363 4.37473 28.7749C4.39393 28.7134 4.43121 28.6592 4.48171 28.6193C4.5322 28.5794 4.59357 28.5556 4.65778 28.5511L7.36 28.4089C7.46667 28.4089 7.60889 28.3378 7.64445 28.1956L8.60445 25.7067V25.6711ZM19.2711 4.33778C19.298 4.28554 19.3388 4.24173 19.389 4.21114C19.4392 4.18056 19.4968 4.16438 19.5556 4.16438C19.6143 4.16438 19.6719 4.18056 19.7221 4.21114C19.7723 4.24173 19.8131 4.28554 19.84 4.33778L20.8 6.86222C20.8356 7.00444 20.9778 7.07555 21.0844 7.07555L23.7867 7.21778C24.0711 7.21778 24.1778 7.57333 23.9644 7.78667L21.8311 9.45778C21.7847 9.50289 21.753 9.56103 21.7403 9.62451C21.7276 9.68799 21.7345 9.75383 21.76 9.81333L22.4711 12.3733C22.4928 12.4383 22.493 12.5084 22.4719 12.5735C22.4507 12.6386 22.4092 12.6952 22.3535 12.735C22.2979 12.7747 22.2309 12.7956 22.1624 12.7945C22.094 12.7934 22.0277 12.7704 21.9733 12.7289L19.7333 11.2711C19.6807 11.2359 19.6188 11.2172 19.5556 11.2172C19.4923 11.2172 19.4304 11.2359 19.3778 11.2711L17.1378 12.7289C17.0834 12.7704 17.0171 12.7934 16.9487 12.7945C16.8802 12.7956 16.8133 12.7747 16.7576 12.735C16.7019 12.6952 16.6604 12.6386 16.6392 12.5735C16.6181 12.5084 16.6184 12.4383 16.64 12.3733L17.3511 9.77778C17.3725 9.71478 17.3737 9.64668 17.3546 9.58295C17.3355 9.51923 17.297 9.46304 17.2444 9.42222L15.1467 7.78667C15.0964 7.7464 15.0595 7.69193 15.0408 7.63036C15.022 7.56879 15.0222 7.50298 15.0414 7.44154C15.0606 7.3801 15.0979 7.32588 15.1484 7.28596C15.1989 7.24604 15.2602 7.22228 15.3244 7.21778L18.0267 7.07555C18.1333 7.07555 18.2756 7.00444 18.3111 6.86222L19.2711 4.37333V4.33778ZM19.2711 15.0044C19.298 14.9522 19.3388 14.9084 19.389 14.8778C19.4392 14.8472 19.4968 14.831 19.5556 14.831C19.6143 14.831 19.6719 14.8472 19.7221 14.8778C19.7723 14.9084 19.8131 14.9522 19.84 15.0044L20.8 17.5289C20.8356 17.6711 20.9778 17.7422 21.0844 17.7422L23.7867 17.8844C24.0711 17.8844 24.1778 18.24 23.9644 18.4533L21.8311 20.1244C21.7847 20.1696 21.753 20.2277 21.7403 20.2912C21.7276 20.3547 21.7345 20.4205 21.76 20.48L22.4711 23.04C22.4928 23.1049 22.493 23.1751 22.4719 23.2402C22.4507 23.3053 22.4092 23.3618 22.3535 23.4016C22.2979 23.4414 22.2309 23.4623 22.1624 23.4612C22.094 23.4601 22.0277 23.4371 21.9733 23.3956L19.7333 21.9378C19.6807 21.9026 19.6188 21.8839 19.5556 21.8839C19.4923 21.8839 19.4304 21.9026 19.3778 21.9378L17.1378 23.3956C17.0834 23.4371 17.0171 23.4601 16.9487 23.4612C16.8802 23.4623 16.8133 23.4414 16.7576 23.4016C16.7019 23.3618 16.6604 23.3053 16.6392 23.2402C16.6181 23.1751 16.6184 23.1049 16.64 23.04L17.3511 20.4444C17.3725 20.3814 17.3737 20.3133 17.3546 20.2496C17.3355 20.1859 17.297 20.1297 17.2444 20.0889L15.1467 18.4533C15.0964 18.4131 15.0595 18.3586 15.0408 18.297C15.022 18.2355 15.0222 18.1697 15.0414 18.1082C15.0606 18.0468 15.0979 17.9925 15.1484 17.9526C15.1989 17.9127 15.2602 17.8889 15.3244 17.8844L18.0267 17.7422C18.1333 17.7422 18.2756 17.6711 18.3111 17.5289L19.2711 15.04V15.0044ZM19.2711 25.6711C19.298 25.6189 19.3388 25.5751 19.389 25.5445C19.4392 25.5139 19.4968 25.4977 19.5556 25.4977C19.6143 25.4977 19.6719 25.5139 19.7221 25.5445C19.7723 25.5751 19.8131 25.6189 19.84 25.6711L20.8 28.1956C20.8356 28.3378 20.9778 28.4089 21.0844 28.4089L23.7867 28.5511C24.0711 28.5511 24.1778 28.9067 23.9644 29.12L21.8311 30.7911C21.7847 30.8362 21.753 30.8944 21.7403 30.9578C21.7276 31.0213 21.7345 31.0872 21.76 31.1467L22.4711 33.7067C22.4928 33.7716 22.493 33.8417 22.4719 33.9068C22.4507 33.9719 22.4092 34.0285 22.3535 34.0683C22.2979 34.1081 22.2309 34.1289 22.1624 34.1279C22.094 34.1268 22.0277 34.1038 21.9733 34.0622L19.7333 32.6044C19.6807 32.5693 19.6188 32.5505 19.5556 32.5505C19.4923 32.5505 19.4304 32.5693 19.3778 32.6044L17.1378 34.0622C17.0834 34.1038 17.0171 34.1268 16.9487 34.1279C16.8802 34.1289 16.8133 34.1081 16.7576 34.0683C16.7019 34.0285 16.6604 33.9719 16.6392 33.9068C16.6181 33.8417 16.6184 33.7716 16.64 33.7067L17.3511 31.1111C17.3725 31.0481 17.3737 30.98 17.3546 30.9163C17.3355 30.8526 17.297 30.7964 17.2444 30.7556L15.1467 29.12C15.0964 29.0797 15.0595 29.0253 15.0408 28.9637C15.022 28.9021 15.0222 28.8363 15.0414 28.7749C15.0606 28.7134 15.0979 28.6592 15.1484 28.6193C15.1989 28.5794 15.2602 28.5556 15.3244 28.5511L18.0267 28.4089C18.1333 28.4089 18.2756 28.3378 18.3111 28.1956L19.2711 25.7067V25.6711ZM29.9378 4.33778C29.9647 4.28554 30.0055 4.24173 30.0557 4.21114C30.1058 4.18056 30.1635 4.16438 30.2222 4.16438C30.281 4.16438 30.3386 4.18056 30.3888 4.21114C30.439 4.24173 30.4797 4.28554 30.5067 4.33778L31.4667 6.86222C31.5022 7.00444 31.6444 7.07555 31.7511 7.07555L34.4533 7.21778C34.7378 7.21778 34.8444 7.57333 34.6311 7.78667L32.4978 9.45778C32.4514 9.50289 32.4197 9.56103 32.407 9.62451C32.3943 9.68799 32.4012 9.75383 32.4267 9.81333L33.1378 12.3733C33.1594 12.4383 33.1597 12.5084 33.1385 12.5735C33.1174 12.6386 33.0759 12.6952 33.0202 12.735C32.9645 12.7747 32.8975 12.7956 32.8291 12.7945C32.7607 12.7934 32.6944 12.7704 32.64 12.7289L30.4 11.2711C30.3474 11.2359 30.2855 11.2172 30.2222 11.2172C30.1589 11.2172 30.0971 11.2359 30.0444 11.2711L27.8044 12.7289C27.7501 12.7704 27.6838 12.7934 27.6153 12.7945C27.5469 12.7956 27.4799 12.7747 27.4242 12.735C27.3685 12.6952 27.3271 12.6386 27.3059 12.5735C27.2848 12.5084 27.285 12.4383 27.3067 12.3733L28.0178 9.77778C28.0392 9.71478 28.0404 9.64668 28.0213 9.58295C28.0022 9.51923 27.9636 9.46304 27.9111 9.42222L25.8133 7.78667C25.7631 7.7464 25.7262 7.69193 25.7074 7.63036C25.6886 7.56879 25.6889 7.50298 25.7081 7.44154C25.7273 7.3801 25.7645 7.32588 25.815 7.28596C25.8655 7.24604 25.9269 7.22228 25.9911 7.21778L28.6933 7.07555C28.8 7.07555 28.9422 7.00444 28.9778 6.86222L29.9378 4.37333V4.33778ZM29.9378 15.0044C29.9647 14.9522 30.0055 14.9084 30.0557 14.8778C30.1058 14.8472 30.1635 14.831 30.2222 14.831C30.281 14.831 30.3386 14.8472 30.3888 14.8778C30.439 14.9084 30.4797 14.9522 30.5067 15.0044L31.4667 17.5289C31.5022 17.6711 31.6444 17.7422 31.7511 17.7422L34.4533 17.8844C34.7378 17.8844 34.8444 18.24 34.6311 18.4533L32.4978 20.1244C32.4514 20.1696 32.4197 20.2277 32.407 20.2912C32.3943 20.3547 32.4012 20.4205 32.4267 20.48L33.1378 23.04C33.1594 23.1049 33.1597 23.1751 33.1385 23.2402C33.1174 23.3053 33.0759 23.3618 33.0202 23.4016C32.9645 23.4414 32.8975 23.4623 32.8291 23.4612C32.7607 23.4601 32.6944 23.4371 32.64 23.3956L30.4 21.9378C30.3474 21.9026 30.2855 21.8839 30.2222 21.8839C30.1589 21.8839 30.0971 21.9026 30.0444 21.9378L27.8044 23.3956C27.7501 23.4371 27.6838 23.4601 27.6153 23.4612C27.5469 23.4623 27.4799 23.4414 27.4242 23.4016C27.3685 23.3618 27.3271 23.3053 27.3059 23.2402C27.2848 23.1751 27.285 23.1049 27.3067 23.04L28.0178 20.4444C28.0392 20.3814 28.0404 20.3133 28.0213 20.2496C28.0022 20.1859 27.9636 20.1297 27.9111 20.0889L25.8133 18.4533C25.7631 18.4131 25.7262 18.3586 25.7074 18.297C25.6886 18.2355 25.6889 18.1697 25.7081 18.1082C25.7273 18.0468 25.7645 17.9925 25.815 17.9526C25.8655 17.9127 25.9269 17.8889 25.9911 17.8844L28.6933 17.7422C28.8 17.7422 28.9422 17.6711 28.9778 17.5289L29.9378 15.04V15.0044ZM29.9378 25.6711C29.9647 25.6189 30.0055 25.5751 30.0557 25.5445C30.1058 25.5139 30.1635 25.4977 30.2222 25.4977C30.281 25.4977 30.3386 25.5139 30.3888 25.5445C30.439 25.5751 30.4797 25.6189 30.5067 25.6711L31.4667 28.1956C31.5022 28.3378 31.6444 28.4089 31.7511 28.4089L34.4533 28.5511C34.7378 28.5511 34.8444 28.9067 34.6311 29.12L32.4978 30.7911C32.4514 30.8362 32.4197 30.8944 32.407 30.9578C32.3943 31.0213 32.4012 31.0872 32.4267 31.1467L33.1378 33.7067C33.1594 33.7716 33.1597 33.8417 33.1385 33.9068C33.1174 33.9719 33.0759 34.0285 33.0202 34.0683C32.9645 34.1081 32.8975 34.1289 32.8291 34.1279C32.7607 34.1268 32.6944 34.1038 32.64 34.0622L30.4 32.6044C30.3474 32.5693 30.2855 32.5505 30.2222 32.5505C30.1589 32.5505 30.0971 32.5693 30.0444 32.6044L27.8044 34.0622C27.7501 34.1038 27.6838 34.1268 27.6153 34.1279C27.5469 34.1289 27.4799 34.1081 27.4242 34.0683C27.3685 34.0285 27.3271 33.9719 27.3059 33.9068C27.2848 33.8417 27.285 33.7716 27.3067 33.7067L28.0178 31.1111C28.0392 31.0481 28.0404 30.98 28.0213 30.9163C28.0022 30.8526 27.9636 30.7964 27.9111 30.7556L25.8133 29.12C25.7631 29.0797 25.7262 29.0253 25.7074 28.9637C25.6886 28.9021 25.6889 28.8363 25.7081 28.7749C25.7273 28.7134 25.7645 28.6592 25.815 28.6193C25.8655 28.5794 25.9269 28.5556 25.9911 28.5511L28.6933 28.4089C28.8 28.4089 28.9422 28.3378 28.9778 28.1956L29.9378 25.7067V25.6711Z" fill="#F8F9FD"/>
</g>
<defs>
<clipPath id="clip0_3_19">
<rect width="64" height="64" rx="32" fill="white"/>
</clipPath>
</defs>
</svg>
