<svg width="160" height="160" viewBox="0 0 160 160" fill="none" xmlns="http://www.w3.org/2000/svg">
<g clip-path="url(#clip0_20_88)">
<path fill-rule="evenodd" clip-rule="evenodd" d="M80 145C82.3 145 88.43 142.74 94.87 129.86C97.93 123.74 100.5 116.16 102.29 107.5H57.71C59.5 116.16 62.07 123.74 65.13 129.86C71.57 142.74 77.7 145 80 145ZM55.54 92.5C54.8153 84.1824 54.8153 75.8176 55.54 67.5H104.46C105.18 75.8178 105.18 84.1822 104.46 92.5H55.54ZM117.57 107.5C115.33 119.74 111.64 130.58 106.91 139.18C120.995 132.748 132.337 121.52 138.91 107.5H117.57ZM143.8 92.5H119.5C120.152 84.1794 120.152 75.8206 119.5 67.5H143.79C145.408 75.7548 145.408 84.2452 143.79 92.5H143.8ZM40.49 92.5H16.2C14.5823 84.2452 14.5823 75.7548 16.2 67.5H40.5C39.848 75.8206 39.848 84.1794 40.5 92.5H40.49ZM21.09 107.5H42.43C44.67 119.74 48.36 130.58 53.09 139.18C39.0046 132.748 27.6632 121.52 21.09 107.5ZM57.71 52.5H102.29C100.5 43.84 97.93 36.26 94.87 30.14C88.43 17.26 82.3 15 80 15C77.7 15 71.57 17.26 65.13 30.14C62.07 36.26 59.5 43.84 57.71 52.5ZM117.57 52.5H138.91C132.337 38.48 120.995 27.2519 106.91 20.82C111.64 29.42 115.33 40.26 117.57 52.5ZM53.1 20.82C48.37 29.42 44.68 40.26 42.44 52.5H21.09C27.6632 38.48 39.0146 27.2519 53.1 20.82ZM80 0C101.217 0 121.566 8.42855 136.569 23.4315C151.571 38.4344 160 58.7827 160 80C160 101.217 151.571 121.566 136.569 136.569C121.566 151.571 101.217 160 80 160C58.7827 160 38.4344 151.571 23.4315 136.569C8.42855 121.566 0 101.217 0 80C0 58.7827 8.42855 38.4344 23.4315 23.4315C38.4344 8.42855 58.7827 0 80 0Z" fill="#31258D"/>
</g>
<defs>
<clipPath id="clip0_20_88">
<rect width="160" height="160" fill="white"/>
</clipPath>
</defs>
</svg>
