<svg width="160" height="160" viewBox="0 0 160 160" fill="none" xmlns="http://www.w3.org/2000/svg">
<path d="M55.7377 5.26248C39.7512 10.8083 25.9645 21.3346 16.4026 35.295C6.84066 49.2554 2.00757 65.9143 2.6132 82.8245C3.21884 99.7348 9.23128 116.005 19.7674 129.246C30.3035 142.486 44.8079 151.999 61.1502 156.387C74.3992 159.806 88.2803 159.956 101.6 156.825C113.667 154.115 124.822 148.317 133.975 140C143.501 131.079 150.416 119.731 153.975 107.175C157.844 93.5208 158.533 79.1616 155.988 65.2H81.5877V96.0625H124.675C123.814 100.985 121.969 105.683 119.25 109.875C116.53 114.068 112.993 117.669 108.85 120.462C103.589 123.943 97.6576 126.285 91.4377 127.337C85.1995 128.497 78.8009 128.497 72.5627 127.337C66.24 126.03 60.2589 123.421 55.0002 119.675C46.552 113.695 40.2086 105.199 36.8752 95.4C33.4854 85.4174 33.4854 74.5951 36.8752 64.6125C39.248 57.6152 43.1706 51.2442 48.3502 45.975C54.2776 39.8343 61.7818 35.4449 70.0396 33.2884C78.2974 31.1319 86.9897 31.2916 95.1627 33.75C101.547 35.7099 107.386 39.1342 112.213 43.75C117.071 38.9166 121.921 34.0708 126.763 29.2125C129.263 26.6 131.988 24.1125 134.45 21.4375C127.082 14.5809 118.434 9.24569 109 5.73748C91.8215 -0.500151 73.0249 -0.667781 55.7377 5.26248Z" fill="white"/>
<path d="M55.7377 5.26245C73.0235 -0.67184 91.8201 -0.508623 109 5.72495C118.435 9.25699 127.08 14.6179 134.438 21.4999C131.938 24.1749 129.3 26.6749 126.75 29.2749C121.9 34.1166 117.054 38.9416 112.213 43.7499C107.386 39.1342 101.547 35.7098 95.1627 33.7499C86.9924 31.283 78.3004 31.114 70.0404 33.2617C61.7804 35.4094 54.2716 39.7907 48.3377 45.9249C43.1581 51.1941 39.2355 57.5652 36.8627 64.5624L10.9502 44.4999C20.2253 26.107 36.2846 12.0377 55.7377 5.26245Z" fill="#E33629"/>
<path d="M4.07487 64.375C5.46763 57.4724 7.77991 50.7878 10.9499 44.5L36.8624 64.6125C33.4726 74.5951 33.4726 85.4174 36.8624 95.4C28.229 102.067 19.5915 108.767 10.9499 115.5C3.01425 99.7039 0.594025 81.7063 4.07487 64.375Z" fill="#F8BD00"/>
<path d="M81.5876 65.1875H155.988C158.533 79.1492 157.844 93.5084 153.975 107.163C150.416 119.718 143.501 131.067 133.975 139.987C125.613 133.462 117.213 126.988 108.85 120.463C112.996 117.666 116.535 114.061 119.254 109.864C121.973 105.667 123.817 100.964 124.675 96.0375H81.5876C81.5751 85.7625 81.5876 75.475 81.5876 65.1875Z" fill="#587DBD"/>
<path d="M10.9375 115.5C19.5792 108.833 28.2167 102.133 36.85 95.3999C40.1901 105.202 46.5426 113.699 55 119.675C60.2751 123.403 66.2691 125.992 72.6 127.275C78.8382 128.435 85.2368 128.435 91.475 127.275C97.6949 126.222 103.626 123.88 108.888 120.4C117.25 126.925 125.65 133.4 134.012 139.925C124.861 148.246 113.705 154.048 101.637 156.762C88.3176 159.894 74.4365 159.744 61.1875 156.325C50.7088 153.527 40.9209 148.595 32.4375 141.837C23.4583 134.708 16.1244 125.725 10.9375 115.5Z" fill="#319F43"/>
</svg>
